<svg id="visual" viewBox="0 0 900 600" width="900" height="600" xmlns="http://www.w3.org/2000/svg" xmlns:xlink="http://www.w3.org/1999/xlink" version="1.1"><path d="M0 83L21.5 88.7C43 94.3 86 105.7 128.8 112.5C171.7 119.3 214.3 121.7 257.2 115.2C300 108.7 343 93.3 385.8 83.7C428.7 74 471.3 70 514.2 65.7C557 61.3 600 56.7 642.8 56.5C685.7 56.3 728.3 60.7 771.2 62C814 63.3 857 61.7 878.5 60.8L900 60L900 0L878.5 0C857 0 814 0 771.2 0C728.3 0 685.7 0 642.8 0C600 0 557 0 514.2 0C471.3 0 428.7 0 385.8 0C343 0 300 0 257.2 0C214.3 0 171.7 0 128.8 0C86 0 43 0 21.5 0L0 0Z" fill="#6c62fd" stroke-linecap="round" stroke-linejoin="miter"></path></svg>